<mxfile host="65bd71144e">
    <diagram id="NuMuyJ0UBDDyV1lLQY9N" name="Step 1 - Define the purpose of the DB">
        <mxGraphModel dx="800" dy="562" grid="1" gridSize="10" guides="1" tooltips="1" connect="1" arrows="1" fold="1" page="1" pageScale="1" pageWidth="827" pageHeight="1169" math="0" shadow="0">
            <root>
                <mxCell id="0"/>
                <mxCell id="1" parent="0"/>
                <mxCell id="2" value="Products" style="ellipse;shape=cloud;whiteSpace=wrap;html=1;" parent="1" vertex="1">
                    <mxGeometry x="150" y="290" width="120" height="80" as="geometry"/>
                </mxCell>
                <mxCell id="3" value="Sets" style="ellipse;shape=cloud;whiteSpace=wrap;html=1;" parent="1" vertex="1">
                    <mxGeometry x="200" y="170" width="170" height="80" as="geometry"/>
                </mxCell>
                <mxCell id="4" value="" style="shape=actor;whiteSpace=wrap;html=1;" parent="1" vertex="1">
                    <mxGeometry x="374" y="350" width="40" height="60" as="geometry"/>
                </mxCell>
                <mxCell id="5" value="Bids" style="ellipse;shape=cloud;whiteSpace=wrap;html=1;" parent="1" vertex="1">
                    <mxGeometry x="490" y="290" width="140" height="80" as="geometry"/>
                </mxCell>
                <mxCell id="6" value="Customers" style="ellipse;shape=cloud;whiteSpace=wrap;html=1;" parent="1" vertex="1">
                    <mxGeometry x="400" y="170" width="120" height="80" as="geometry"/>
                </mxCell>
            </root>
        </mxGraphModel>
    </diagram>
    <diagram id="O3U2NHLkLz26aXM3maAr" name="Step 2 - The ERM">
        <mxGraphModel dx="800" dy="562" grid="1" gridSize="10" guides="1" tooltips="1" connect="1" arrows="1" fold="1" page="1" pageScale="1" pageWidth="827" pageHeight="1169" math="0" shadow="0">
            <root>
                <mxCell id="SugYGAc_b5lUKjztGZmf-0"/>
                <mxCell id="SugYGAc_b5lUKjztGZmf-1" parent="SugYGAc_b5lUKjztGZmf-0"/>
                <mxCell id="1OKOIQU5MxFZJk9DVA5E-0" value="Set" style="whiteSpace=wrap;html=1;align=center;" vertex="1" parent="SugYGAc_b5lUKjztGZmf-1">
                    <mxGeometry x="360" y="270" width="100" height="40" as="geometry"/>
                </mxCell>
                <mxCell id="1OKOIQU5MxFZJk9DVA5E-3" style="edgeStyle=none;html=1;exitX=0;exitY=1;exitDx=0;exitDy=0;endArrow=none;endFill=0;" edge="1" parent="SugYGAc_b5lUKjztGZmf-1" source="1OKOIQU5MxFZJk9DVA5E-1" target="1OKOIQU5MxFZJk9DVA5E-0">
                    <mxGeometry relative="1" as="geometry"/>
                </mxCell>
                <mxCell id="1OKOIQU5MxFZJk9DVA5E-1" value="&lt;u&gt;CatalogNr&lt;/u&gt;" style="ellipse;whiteSpace=wrap;html=1;align=center;" vertex="1" parent="SugYGAc_b5lUKjztGZmf-1">
                    <mxGeometry x="450" y="160" width="100" height="40" as="geometry"/>
                </mxCell>
                <mxCell id="1OKOIQU5MxFZJk9DVA5E-4" style="edgeStyle=none;html=1;exitX=0;exitY=1;exitDx=0;exitDy=0;endArrow=none;endFill=0;" edge="1" parent="SugYGAc_b5lUKjztGZmf-1" source="1OKOIQU5MxFZJk9DVA5E-2" target="1OKOIQU5MxFZJk9DVA5E-0">
                    <mxGeometry relative="1" as="geometry"/>
                </mxCell>
                <mxCell id="1OKOIQU5MxFZJk9DVA5E-2" value="Start Price" style="ellipse;whiteSpace=wrap;html=1;align=center;" vertex="1" parent="SugYGAc_b5lUKjztGZmf-1">
                    <mxGeometry x="520" y="210" width="100" height="40" as="geometry"/>
                </mxCell>
                <mxCell id="1OKOIQU5MxFZJk9DVA5E-6" style="edgeStyle=none;html=1;exitX=0;exitY=0.5;exitDx=0;exitDy=0;entryX=1;entryY=0.5;entryDx=0;entryDy=0;endArrow=none;endFill=0;" edge="1" parent="SugYGAc_b5lUKjztGZmf-1" source="1OKOIQU5MxFZJk9DVA5E-5" target="1OKOIQU5MxFZJk9DVA5E-0">
                    <mxGeometry relative="1" as="geometry"/>
                </mxCell>
                <mxCell id="1OKOIQU5MxFZJk9DVA5E-5" value="Highest Bid" style="ellipse;whiteSpace=wrap;html=1;align=center;" vertex="1" parent="SugYGAc_b5lUKjztGZmf-1">
                    <mxGeometry x="530" y="280" width="100" height="40" as="geometry"/>
                </mxCell>
                <mxCell id="1OKOIQU5MxFZJk9DVA5E-8" style="edgeStyle=none;html=1;exitX=0;exitY=0;exitDx=0;exitDy=0;entryX=1;entryY=1;entryDx=0;entryDy=0;endArrow=none;endFill=0;" edge="1" parent="SugYGAc_b5lUKjztGZmf-1" source="1OKOIQU5MxFZJk9DVA5E-7" target="1OKOIQU5MxFZJk9DVA5E-0">
                    <mxGeometry relative="1" as="geometry"/>
                </mxCell>
                <mxCell id="1OKOIQU5MxFZJk9DVA5E-7" value="Remaining auction time" style="ellipse;whiteSpace=wrap;html=1;align=center;" vertex="1" parent="SugYGAc_b5lUKjztGZmf-1">
                    <mxGeometry x="470" y="350" width="100" height="40" as="geometry"/>
                </mxCell>
                <mxCell id="1OKOIQU5MxFZJk9DVA5E-9" value="Product" style="whiteSpace=wrap;html=1;align=center;" vertex="1" parent="SugYGAc_b5lUKjztGZmf-1">
                    <mxGeometry x="140" y="270" width="100" height="40" as="geometry"/>
                </mxCell>
                <mxCell id="1OKOIQU5MxFZJk9DVA5E-10" value="Relationship" style="shape=rhombus;double=1;perimeter=rhombusPerimeter;whiteSpace=wrap;html=1;align=center;" vertex="1" parent="SugYGAc_b5lUKjztGZmf-1">
                    <mxGeometry x="350" y="250" width="120" height="60" as="geometry"/>
                </mxCell>
            </root>
        </mxGraphModel>
    </diagram>
    <diagram id="lYJBItrS1kzm_RbvxHhG" name="Step 3 - UML">
        <mxGraphModel dx="800" dy="562" grid="1" gridSize="10" guides="1" tooltips="1" connect="1" arrows="1" fold="1" page="1" pageScale="1" pageWidth="827" pageHeight="1169" math="0" shadow="0">
            <root>
                <mxCell id="tmoW70O3WnlVBGm4fVCz-0"/>
                <mxCell id="tmoW70O3WnlVBGm4fVCz-1" parent="tmoW70O3WnlVBGm4fVCz-0"/>
            </root>
        </mxGraphModel>
    </diagram>
    <diagram id="h3dlu8bpGFOVv6ghujL7" name="Step 4 - Norm.">
        <mxGraphModel dx="800" dy="562" grid="1" gridSize="10" guides="1" tooltips="1" connect="1" arrows="1" fold="1" page="1" pageScale="1" pageWidth="827" pageHeight="1169" math="0" shadow="0">
            <root>
                <mxCell id="qjB7M2fl9DO1ppy_1SeX-0"/>
                <mxCell id="qjB7M2fl9DO1ppy_1SeX-1" parent="qjB7M2fl9DO1ppy_1SeX-0"/>
            </root>
        </mxGraphModel>
    </diagram>
</mxfile>